<?xml version="1.0" encoding="UTF-8" standalone="no"?>
<svg xmlns="http://www.w3.org/2000/svg"><symbol id="dx-apply" viewBox="0 0 16 16"><path fill-rule="evenodd" clip-rule="evenodd" d="m15.409 3.414-9.96 9.959L.5 8.423l1.5-1.5 3.536 3.536L13.994 2l1.415 1.414Z"/></symbol><symbol id="dx-arrow-down" viewBox="0 0 17 16"><path fill-rule="evenodd" clip-rule="evenodd" d="M9.002 10V1h-2v9h-3l4 5 4-5h-3Z"/></symbol><symbol id="dx-arrow-up" viewBox="0 0 17 16"><path fill-rule="evenodd" clip-rule="evenodd" d="M9.002 6v9h-2V6h-3l4-5 4 5h-3Z"/></symbol><symbol id="dx-back" viewBox="0 0 16 16"><g clip-path="url(#clip0_85_294)"><path d="M16 6.99v2.02H3.879l5.555 5.556L8 16 0 8l8-8 1.434 1.434L3.88 6.99H16Z"/></g><defs><clipPath id="clip0_85_294"><rect width="16" height="16"/></clipPath></defs></symbol><symbol id="dx-cancel" viewBox="0 0 16 16"><path fill-rule="evenodd" clip-rule="evenodd" d="M14 12.5 12.5 14 8 9.5 3.5 14 2 12.5 6.5 8 2 3.5 3.5 2 8 6.5 12.5 2 14 3.5 9.5 8l4.5 4.5Z"/></symbol><symbol id="dx-caret-down" viewBox="0 0 16 16"><path fill-rule="evenodd" clip-rule="evenodd" d="m3 6 5 5 5-5H3Z"/></symbol><symbol id="dx-caret-up" viewBox="0 0 16 16"><path fill-rule="evenodd" clip-rule="evenodd" d="m3 10 5-5 5 5H3Z"/></symbol><symbol id="dx-chevron-double-left" viewBox="0 0 16 16"><path d="m7 15 1.5-1.5L3 8l5.5-5.5L7 1 0 8l7 7Z"/><path d="m13.5 15 1.5-1.5L9.5 8 15 2.5 13.5 1l-7 7 7 7Z"/></symbol><symbol id="dx-chevron-double-right" viewBox="0 0 16 16"><path d="m9 15-1.5-1.5L13 8 7.5 2.5 9 1l7 7-7 7Z"/><path d="M2.5 15 1 13.5 6.5 8 1 2.5 2.5 1l7 7-7 7Z"/></symbol><symbol id="dx-chevron-down-small" viewBox="0 0 16 16"><path d="M4.429 5.786 3 7.214l5 5 5-5-1.429-1.428L8 9.357 4.429 5.786Z"/></symbol><symbol id="dx-chevron-down" viewBox="0 0 16 16"><path fill-rule="evenodd" clip-rule="evenodd" d="M2.5 4 1 5.5l7 7 7-7L13.5 4 8 9.5 2.5 4Z"/></symbol><symbol id="dx-chevron-left-small" viewBox="0 0 16 16"><path d="M10.429 4.429 9 3 4 8l5 5 1.429-1.429L6.857 8l3.572-3.571Z"/></symbol><symbol id="dx-chevron-left" viewBox="0 0 16 16"><path fill-rule="evenodd" clip-rule="evenodd" d="M12 13.5 10.5 15l-7-7 7-7L12 2.5 6.5 8l5.5 5.5Z"/></symbol><symbol id="dx-chevron-right-small" viewBox="0 0 16 16"><path d="M5 4.429 6.429 3l5 5-5 5L5 11.571 8.571 8 5 4.429Z"/></symbol><symbol id="dx-chevron-right" viewBox="0 0 16 16"><path fill-rule="evenodd" clip-rule="evenodd" d="M4 13.5 5.5 15l7-7-7-7L4 2.5 9.5 8 4 13.5Z"/></symbol><symbol id="dx-chevron-up-small" viewBox="0 0 16 16"><path d="M11.571 10.214 13 8.786l-5-5-5 5 1.429 1.428L8 6.643l3.571 3.571Z"/></symbol><symbol id="dx-chevron-up" viewBox="0 0 16 16"><path fill-rule="evenodd" clip-rule="evenodd" d="M2.5 12 1 10.5l7-7 7 7-1.5 1.5L8 6.5 2.5 12Z"/></symbol><symbol id="dx-close" viewBox="0 0 16 16"><path fill-rule="evenodd" clip-rule="evenodd" d="M13 11.51 11.51 13 8 9.487 4.49 13 3 11.51 6.51 8 3 4.49l1.49-1.49L8 6.51 11.51 3 13 4.489l-3.51 3.51L13 11.51Z"/></symbol><symbol id="dx-column-chooser-button" viewBox="0 0 16 16"><path fill-rule="evenodd" clip-rule="evenodd" d="M11.5 1.5h-9c-.6 0-1 .4-1 1v9c0 .6.4 1 1 1h9c.6 0 1-.4 1-1v-9c0-.6-.4-1-1-1Zm0 10h-9v-7h9v7Zm0-8h-9v-1h9v1Z"/><path opacity="0.5" d="M13.5 3.5h-1v1h1v9h-9v-1h-1v1c0 .6.4 1 1 1h9c.6 0 1-.4 1-1v-9c0-.6-.4-1-1-1Z"/><path opacity="0.5" d="M10.5 5.5h-7v5h7v-5Zm-1 4h-5v-1h5v1Zm0-2h-5v-1h5v1Z"/></symbol><symbol id="dx-column-chooser-drag" viewBox="0 0 16 16"><path fill-rule="evenodd" clip-rule="evenodd" d="M9 15v-2h2v2H9Zm0-6h2v2H9V9Zm0-4h2v2H9V5Zm0-4h2v2H9V1ZM5 13h2v2H5v-2Zm0-4h2v2H5V9Zm0-4h2v2H5V5Zm0-4h2v2H5V1Z"/></symbol><symbol id="dx-editor-calendar" viewBox="0 0 17 16"><path fill-rule="evenodd" clip-rule="evenodd" d="M4 0a1 1 0 0 0-1 1v1a2 2 0 0 0-2 2v10a2 2 0 0 0 2 2h10a2 2 0 0 0 2-2V4a2 2 0 0 0-2-2V1a1 1 0 1 0-2 0v1H5V1a1 1 0 0 0-1-1Zm1 14v-2H3v2h2Zm0-6v2H3V8h2Zm4 4H7v2h2v-2ZM7 8h2v2H7V8Zm6 6v-2h-2v2h2Zm0-6v2h-2V8h2ZM4 4a1 1 0 0 0-1 1v1h10V5a1 1 0 0 0-1-1H4Z"/></symbol><symbol id="dx-editor-check" viewBox="0 0 16 16"><path fill-rule="evenodd" clip-rule="evenodd" d="m15.409 3.414-9.96 9.959L.5 8.423l1.5-1.5 3.536 3.536L13.994 2l1.415 1.414Z"/></symbol><symbol id="dx-editor-clear" viewBox="0 0 16 16"><path fill-rule="evenodd" clip-rule="evenodd" d="m12.7 11.3-1.4 1.4L8 9.4l-3.3 3.3-1.4-1.4L6.6 8 3.3 4.7l1.4-1.4L8 6.6l3.3-3.3 1.4 1.4L9.4 8l3.3 3.3Z"/></symbol><symbol id="dx-editor-clock" viewBox="0 0 17 16"><path d="M7.003 4a1 1 0 0 1 2 0v3h2a1 1 0 1 1 0 2h-3a1 1 0 0 1-1-1V4Z"/><path fill-rule="evenodd" clip-rule="evenodd" d="M8.002 16a8 8 0 1 0 0-16 8 8 0 0 0 0 16Zm0-2a6 6 0 1 0 0-12 6 6 0 0 0 0 12Z"/></symbol><symbol id="dx-editor-remove-tag" viewBox="0 0 16 16"><path d="M12 5.3 10.7 4 8 6.7 5.3 4 4 5.3 6.7 8 4 10.7 5.3 12 8 9.3l2.7 2.7 1.3-1.3L9.3 8 12 5.3Z"/></symbol><symbol id="dx-hamburger" viewBox="0 0 16 16"><path d="M16 3H0v2h16V3Z"/><path d="M16 7H0v2h16V7Z"/><path d="M0 11h16v2H0v-2Z"/></symbol><symbol id="dx-more" viewBox="0 0 16 16"><path d="M4 8a2 2 0 1 1-4 0 2 2 0 0 1 4 0Z"/><path d="M10 8a2 2 0 1 1-4 0 2 2 0 0 1 4 0Z"/><path d="M14 10a2 2 0 1 0 0-4 2 2 0 0 0 0 4Z"/></symbol><symbol id="dx-sc-apt-exception" viewBox="0 0 17 16"><path d="M14.002 8h-4l1.6-1.6c-.6-1.4-2-2.4-3.6-2.4-.7 0-1.4.2-2 .6l5.4 5.4h2.2c-.2.5-.5 1-.8 1.5l1.8 1.8-1.4 1.5-1.9-1.9c-.8.7-2 1.1-3.3 1.1-2.2 0-4.1-1.2-5.1-2.9l-1.9 1.9V8h5l-1.6 1.6c.6 1.4 2 2.4 3.6 2.4.7 0 1.4-.2 2-.6L4.602 6h-2.2c.2-.5.5-1 .8-1.5l-1.9-1.8 1.4-1.5 1.9 1.9c.9-.7 2.1-1.1 3.4-1.1 2.2 0 4.1 1.2 5.1 2.9l1.9-1.9v5h-1Z"/></symbol><symbol id="dx-sc-apt-recurrence" viewBox="0 0 17 16"><path fill-rule="evenodd" clip-rule="evenodd" d="M15.002 8h-5l1.6-1.6c-.6-1.4-2-2.4-3.6-2.4-1.5 0-2.8.8-3.4 2h-2.2c.8-2.3 3-4 5.6-4 2.2 0 4.1 1.2 5.1 2.9l1.9-1.9v5Zm-9 0-1.6 1.6c.6 1.4 2 2.4 3.6 2.4 1.5 0 2.8-.8 3.4-2h2.2c-.8 2.3-3 4-5.6 4-2.2 0-4.1-1.2-5.1-2.9l-1.9 1.9V8h5Z"/></symbol><symbol id="dx-sc-delete" viewBox="0 0 17 16"><path d="M11.002 0c.6 0 1 .4 1 1h3v2h-14V1h3c0-.6.4-1 1-1h6Z"/><path fill-rule="evenodd" clip-rule="evenodd" d="M2.003 14V4h12v10c0 1.1-.9 2-2 2h-8c-1.1 0-2-.9-2-2Z"/></symbol><symbol id="dx-sc-description" viewBox="0 0 16 16"><path d="M1 3v2h14V3H1Zm0 6h14V7H1v2Zm0 4h10v-2H1v2Z"/></symbol><symbol id="dx-sc-edit" viewBox="0 0 17 16"><path d="m13.032 5.978 1.804-1.805c.401-.4 0-.902-.4-1.303l-1.304-1.303c-.4-.4-.902-.802-1.304-.4L10.024 2.97l3.008 3.008Z"/><path d="m4.008 15 8.021-8.02-3.008-3.007L1 11.993V15h3.008Z"/></symbol><symbol id="dx-sc-exception" viewBox="0 0 16 16"><path d="m11.556 8.044 1.51-1.497C12.446 4.346 10.4 2.761 8 2.761c-.533 0-1.066.088-1.51.264L5.066 1.616C5.956 1.264 6.934 1 8 1c2.934 0 5.334 1.761 6.49 4.138L16 3.642v4.402h-4.444Zm2.044 6.78L1.156 2.497 2.4 1.264l12.445 12.327-1.245 1.233ZM3.2 10.157c.8 1.85 2.667 3.17 4.8 3.17.534 0 1.067-.088 1.511-.264l1.334 1.32c-.89.44-1.867.617-2.934.617a7.006 7.006 0 0 1-6.133-3.61L0 13.327V8.925h4.445L3.2 10.157Z"/></symbol><symbol id="dx-sc-expand" viewBox="0 0 16 16"><path fill-rule="evenodd" clip-rule="evenodd" d="M13 4.4 10.4 7H9V5.6L11.6 3H10V1h5v5h-2V4.4ZM7 5.6V7H5.6L3 4.4V6H1V1h5v2H4.4L7 5.6Zm-4 6L5.6 9H7v1.4L4.4 13H6v2H1v-5h2v1.6Zm7 1.4h1.6L9 10.4V9h1.4l2.6 2.6V10h2v5h-5v-2Z"/></symbol><symbol id="dx-sc-label" viewBox="0 0 16 16"><path d="M14.347 1.5H1.654C.738 1.5 0 2.28 0 3.233v9.534C0 13.72.738 14.5 1.654 14.5h12.693c.915 0 1.653-.78 1.653-1.733V3.233c0-.953-.738-1.733-1.653-1.733ZM4 12.5H2v-9h2v9Zm10 0H6v-9h8v9Z"/><path opacity="0.5" d="M14 3.5H6v9h8v-9Z"/></symbol><symbol id="dx-sc-location" viewBox="0 0 16 16"><path d="M8 8a2 2 0 1 0 0-4 2 2 0 0 0 0 4Z"/><path fill-rule="evenodd" clip-rule="evenodd" d="M14 6.56C14 2.576 11.15 0 8 0S2 2.576 2 6.56c0 2.656 2.003 5.8 6 9.44 3.998-3.64 6-6.784 6-9.44Zm-2-.05C12 3.771 10.1 2 8 2S4 3.771 4 6.51C4 8.336 5.335 10.498 8 13c2.665-2.502 4-4.664 4-6.49Z"/></symbol><symbol id="dx-sc-recurrence" viewBox="0 0 16 16"><path d="M16 8h-4.444l1.52-1.496A5.29 5.29 0 0 0 8 2.75c-2.64 0-4.818 1.89-5.244 4.375H.95C1.387 3.669 4.374 1 8.001 1a7.1 7.1 0 0 1 6.461 4.139L16 3.625V8ZM3.165 10.135A5.303 5.303 0 0 0 8 13.25a5.297 5.297 0 0 0 5.005-3.5h1.875C14.09 12.769 11.316 15 8 15a7.095 7.095 0 0 1-6.16-3.561L0 13.25V8.875h4.445l-1.28 1.26Z"/></symbol><symbol id="dx-sc-resource" viewBox="0 0 17 16"><path d="M12.002 10h-3v3h3v-3Z"/><path fill-rule="evenodd" clip-rule="evenodd" d="M3.002 1a1 1 0 1 1 2 0v1h6V1a1 1 0 1 1 2 0v1a2 2 0 0 1 2 2v10a2 2 0 0 1-2 2h-10a2 2 0 0 1-2-2V4a2 2 0 0 1 2-2V1Zm10 13V8h-10v6h10Zm-10-9a1 1 0 0 1 1-1h8a1 1 0 0 1 1 1v1h-10V5Z"/></symbol><symbol id="dx-sc-save" viewBox="0 0 17 16"><path d="M10.002 5h-8V2h8v3Zm-2 9a3 3 0 1 1 0-6 3 3 0 0 1 0 6Zm4-14h-10a2 2 0 0 0-2 2v12a2 2 0 0 0 2 2h12a2 2 0 0 0 2-2V4l-4-4Z"/></symbol><symbol id="dx-sc-settings" viewBox="0 0 17 16"><path d="M8.002 4.8c1.8 0 3.3 1.4 3.3 3.2 0 1.8-1.5 3.2-3.3 3.2-1.8 0-3.3-1.4-3.3-3.2 0-1.8 1.5-3.2 3.3-3.2Zm0 1.6c-.9 0-1.6.7-1.6 1.6 0 .9.7 1.6 1.6 1.6.9 0 1.6-.7 1.6-1.6 0-.9-.7-1.6-1.6-1.6Zm-1.6 9.6c-.2 0-.4-.1-.4-.3l-.3-2.1c-.5-.2-1-.5-1.4-.8l-2 .8c-.2.1-.4 0-.5-.2l-1.6-2.8c-.2-.2-.2-.4 0-.5l1.7-1.3-.1-.8.1-.8-1.7-1.3c-.2-.1-.2-.3-.1-.5l1.6-2.8c.1-.2.3-.2.5-.2l2 .8c.4-.3.9-.6 1.4-.8l.3-2.1c.1-.2.2-.3.5-.3h3.3c.2 0 .4.1.4.3l.3 2.1c.5.2 1 .5 1.4.8l2-.8c.2-.1.4 0 .5.2l1.6 2.8c.1.2.1.4-.1.5l-1.7 1.3.1.8-.1.8 1.7 1.3c.2.1.2.3.1.5l-1.6 2.8c-.1.2-.3.2-.5.2l-2-.8c-.4.3-.9.6-1.4.8l-.3 2.1c0 .2-.2.3-.4.3h-3.3Zm1-14.4-.3 2.1c-1 .2-1.9.7-2.5 1.4l-2-.8-.6 1 1.7 1.2c-.3.9-.3 2 0 2.9l-1.7 1.3.6 1 2-.8c.6.7 1.5 1.2 2.5 1.4l.3 2.1h1.2l.3-2.1c1-.2 1.8-.7 2.5-1.4l2 .8.6-1-1.7-1.2c.3-.9.3-2 0-2.9l1.7-1.3-.6-1-2 .8c-.6-.7-1.5-1.2-2.5-1.4l-.3-2.1h-1.2Z"/></symbol><symbol id="dx-sc-status" viewBox="0 0 16 16"><path d="M14.347 1.5H1.654C.738 1.5 0 2.28 0 3.233v9.534C0 13.72.738 14.5 1.654 14.5h12.693c.915 0 1.653-.78 1.653-1.733V3.233c0-.953-.738-1.733-1.653-1.733ZM4 12.5H2v-9h2v9Zm10 0H6v-9h8v9Z"/><path opacity="0.5" d="M4 3.5H2v9h2v-9Z"/></symbol><symbol id="dx-sc-time" viewBox="0 0 17 16"><path d="M7.003 4a1 1 0 0 1 2 0v3h2a1 1 0 1 1 0 2h-3a1 1 0 0 1-1-1V4Z"/><path fill-rule="evenodd" clip-rule="evenodd" d="M8.002 16a8 8 0 1 0 0-16 8 8 0 0 0 0 16Zm0-2a6 6 0 1 0 0-12 6 6 0 0 0 0 12Z"/></symbol><symbol id="dx-search" viewBox="0 0 16 16"><path fill-rule="evenodd" clip-rule="evenodd" d="M10.508 11.927a6.02 6.02 0 1 1 1.419-1.419l3.78 3.78a1.003 1.003 0 1 1-1.42 1.418l-3.779-3.779Zm.526-4.907a4.013 4.013 0 1 1-8.027 0 4.013 4.013 0 0 1 8.027 0Z"/></symbol><symbol id="dx-size-grip" viewBox="0 0 12 12"><path fill-rule="evenodd" clip-rule="evenodd" d="M10 9V7h2v2h-2Zm0-8h2v2h-2V1Zm-3 9h2v2H7v-2Zm0-6h2v2H7V4ZM4 7h2v2H4V7Zm-3 3h2v2H1v-2Z"/></symbol><symbol id="dx-uc-cancel" viewBox="0 0 17 16"><path fill-rule="evenodd" clip-rule="evenodd" d="M8.002 16a8 8 0 1 0 0-16 8 8 0 0 0 0 16ZM5.71 4.293a1 1 0 0 0-1.415 1.414L6.588 8l-2.293 2.293a1 1 0 1 0 1.415 1.414l2.292-2.293 2.293 2.293a1 1 0 1 0 1.415-1.414L9.417 8l2.293-2.293a1 1 0 0 0-1.415-1.414L8.002 6.586 5.71 4.293Z"/></symbol><symbol id="dx-uc-continue" viewBox="0 0 16 16"><path d="M5 3v10l7-5-7-5Z"/></symbol><symbol id="dx-uc-file" viewBox="0 0 48 48"><path d="M37 48H11c-2.2 0-4-1.8-4-4V4c0-2.2 1.8-4 4-4h19l11 11v33c0 2.2-1.8 4-4 4ZM30 4v7h7l-7-7Zm7 10H27V4H11v40h26V14Z"/></symbol><symbol id="dx-uc-pause" viewBox="0 0 16 16"><path d="M7 3H5v10h2V3Z"/><path d="M11 3H9v10h2V3Z"/></symbol><symbol id="dx-uc-reload" viewBox="0 0 17 16"><g clip-path="url(#clip0_102_111)"><path d="M16.003 8v6l-2.2-2.2c-1.2 1.9-3.4 3.2-5.8 3.2-3.9 0-7-3.1-7-7s3.1-7 7-7c3.2 0 5.8 2.1 6.7 5h-2.1c-.8-1.8-2.6-3-4.6-3-2.8 0-5 2.2-5 5s2.2 5 5 5c1.9 0 3.5-1.1 4.4-2.6l-2.4-2.4h6Z"/></g><defs><clipPath id="clip0_102_111"><rect width="16" height="16" transform="translate(0.00250244)"/></clipPath></defs></symbol><symbol id="dx-uc-upload" viewBox="0 0 16 16"><path d="M2 16v-2h12v2H2ZM9 5v7H7V5L3 9 1.5 7.5 8 1l6.5 6.5L13 9 9 5Z"/></symbol><symbol id="dx-validation-success" viewBox="0 0 16 16"><path d="m2.4 8 4 4 7.2-7.2-1.128-1.136L6.4 9.736 3.528 6.864 2.4 8Z"/></symbol><symbol id="dx-validation-warning" viewBox="0 0 16 16"><path fill-rule="evenodd" clip-rule="evenodd" d="M8 16A8 8 0 1 1 8 0a8 8 0 0 1 0 16ZM9 2H7v8h2V2Zm0 10H7v2h2v-2Z"/></symbol></svg>